{
  "extensionsUsed": [
    "CVTOOLS_babylon_mesh",
    "CVTOOLS_left_handed",
    "CVTOOLS_unity_metadata"
  ],
  "extensionsRequired": [
    "CVTOOLS_babylon_mesh",
    "CVTOOLS_left_handed"
  ],
  "accessors": [
    {
      "bufferView": 0,
      "componentType": 5126,
      "count": 24,
      "type": "VEC3",
      "max": [
        0.5,
        0.5,
        0.5
      ],
      "min": [
        -0.5,
        -0.5,
        -0.5
      ],
      "name": "vertices"
    },
    {
      "bufferView": 1,
      "componentType": 5126,
      "count": 24,
      "type": "VEC3",
      "max": [
        1.0,
        1.0,
        1.0
      ],
      "min": [
        -1.0,
        -1.0,
        -1.0
      ],
      "name": "normals"
    },
    {
      "bufferView": 2,
      "componentType": 5126,
      "count": 24,
      "type": "VEC4",
      "max": [
        0.0,
        0.0,
        1.0,
        -1.0
      ],
      "min": [
        -1.0,
        0.0,
        -1.0,
        -1.0
      ],
      "name": "tangents"
    },
    {
      "bufferView": 3,
      "componentType": 5126,
      "count": 24,
      "type": "VEC2",
      "max": [
        1.0,
        1.0
      ],
      "min": [
        0.0,
        0.0
      ],
      "name": "uv"
    },
    {
      "bufferView": 4,
      "componentType": 5126,
      "count": 24,
      "type": "VEC2",
      "max": [
        0.9966580867767334,
        0.99594426155090332
      ],
      "min": [
        0.0040557663887739182,
        0.34716415405273438
      ],
      "name": "uv2"
    },
    {
      "bufferView": 5,
      "componentType": 5125,
      "count": 36,
      "type": "SCALAR",
      "max": [
        23.0
      ],
      "min": [
        0.0
      ],
      "name": "indices"
    }
  ],
  "asset": {
    "generator": "Babylon (2020.3.16f1c1)",
    "version": "2.0"
  },
  "buffers": [
    {
      "uri": "SampleScene.bin",
      "byteLength": 1488
    }
  ],
  "bufferViews": [
    {
      "buffer": 0,
      "byteLength": 288
    },
    {
      "buffer": 0,
      "byteOffset": 288,
      "byteLength": 288
    },
    {
      "buffer": 0,
      "byteOffset": 576,
      "byteLength": 384
    },
    {
      "buffer": 0,
      "byteOffset": 960,
      "byteLength": 192
    },
    {
      "buffer": 0,
      "byteOffset": 1152,
      "byteLength": 192
    },
    {
      "buffer": 0,
      "byteOffset": 1344,
      "byteLength": 144
    }
  ],
  "materials": [
    {
      "pbrMetallicRoughness": {
        "metallicFactor": 0.0,
        "roughnessFactor": 0.5
      },
      "name": "Default-Material",
      "extras": {
        "metadata": {
          "alphaMode": 2,
          "alphaFade": false,
          "useWireframe": false,
          "depthPrepass": false,
          "unlitMaterial": false,
          "freezeMaterial": true,
          "disableLighting": false,
          "detailBlendLevel": 0.75,
          "detailBumpLevel": 1.0,
          "detailRoughLevel": 0.5,
          "lightmapLevel": 1.0,
          "backFaceCulling": true,
          "directIntensity": 1.0,
          "specularIntensity": 1.0,
          "emissiveIntensity": 1.0,
          "environmentIntensity": 1.0,
          "useExpandedLightmapTexture": false,
          "useEmissiveAsIllumination": false,
          "useLightmapAsShadowmap": true,
          "useAlphaFromAlbedoTexture": false,
          "hasAlbedoTextureChannel": false,
          "maxSimultaneousLights": 4,
          "indexOfRefraction": 1.5,
          "ambientColorFactor": [
            0.0,
            0.0,
            0.0,
            1.0
          ],
          "reflectionColorFactor": [
            1.0,
            1.0,
            1.0,
            1.0
          ]
        }
      }
    }
  ],
  "meshes": [
    {
      "primitives": [
        {
          "attributes": {
            "POSITION": 0,
            "NORMAL": 1,
            "TANGENT": 2,
            "TEXCOORD_0": 3,
            "TEXCOORD_1": 4
          },
          "indices": 5,
          "material": 0
        }
      ],
      "name": "Cube"
    }
  ],
  "nodes": [
    {
      "translation": [
        0.0,
        1.0,
        -10.0
      ],
      "name": "Main Camera",
      "extras": {
        "metadata": {
          "guid": "2469024c-2d96-4335-ad6a-9c0ea811a648",
          "group": "MainCamera",
          "tags": "MainCamera Layer0",
          "components": [
            {
              "alias": "camera",
              "type": 0,
              "culling": -1,
              "clearflags": 1,
              "renderlist": null,
              "maincamera": true,
              "perspectiveyfov": 1.04719758,
              "perspectiveaspect": 1.811676,
              "perspectivezfar": 2011,
              "perspectiveznear": 0.3
            }
          ]
        }
      }
    },
    {
      "rotation": [
        0.408217877,
        -0.234569684,
        0.109381631,
        0.8754261
      ],
      "scale": [
        1.0,
        1.0,
        0.99999994
      ],
      "translation": [
        0.0,
        50.0,
        0.0
      ],
      "name": "Directional Light",
      "extras": {
        "metadata": {
          "guid": "ce802f30-064e-47f4-bb9d-8f03f614719e",
          "components": [
            {
              "alias": "light",
              "type": 0,
              "range": 10.0,
              "culling": -1,
              "clearflags": 0,
              "renderlist": null,
              "color": {
                "r": 1.0,
                "g": 0.904661357,
                "b": 0.6724432,
                "a": 1.0
              },
              "specular": {
                "r": 0.0,
                "g": 0.0,
                "b": 0.0,
                "a": 1.0
              },
              "intensity": 1.0,
              "spotangle": 30.0,
              "orthoscale": 0.1,
              "autorender": true,
              "numcascades": 4,
              "calczbounds": false,
              "updateextends": false,
              "ortholeft": 1.7976931348623157E+308,
              "orthoright": 1.7976931348623157E+308,
              "orthotop": 1.7976931348623157E+308,
              "orthobottom": 1.7976931348623157E+308,
              "softshadows": true,
              "shadowmapsize": 2048,
              "shadowquality": "High",
              "generateshadows": true,
              "shadowdistance": 150.0,
              "shadowstrength": 1.0,
              "shadowbiasfactor": 0.01,
              "normalbiasfactor": 0.0,
              "shadowmapbias": 0.05,
              "normalmapbias": 0.4,
              "shadownearplane": 0.2,
              "cascadelambda": 1.0,
              "twocascadesplit": 0.333333343,
              "fourcascadesplit": [
                0.06666667,
                0.2,
                0.466666669
              ],
              "blendpertecntage": 1E-08,
              "boundsrefreshrate": 1,
              "lightcontactratio": 0.1,
              "stabilizecascades": false,
              "exponentdecayspeed": 1.0,
              "penumbradarkness": 1.0,
              "softshadowsfilter": 99,
              "freezeshadows": false,
              "setdepthclamp": false,
              "calcdepths": false,
              "depthscaling": 50.0,
              "kernelblur": false,
              "blurscaling": 2.0,
              "blurkernelsize": 1.0,
              "blurboxoffset": 1.0,
              "shadowfrustumsize": 0.0,
              "frustumedgefalloff": 0.0,
              "forcebackfacesonly": false,
              "transparencyshadow": false,
              "softtransparency": false,
              "shadowfilterquality": "Medium",
              "usefullfloatfirst": false
            }
          ]
        }
      }
    },
    {
      "mesh": 0,
      "name": "Cube",
      "extras": {
        "metadata": {
          "guid": "2cd527b1-68c3-46a3-9d04-315f933bdccf",
          "physics": {
            "type": "rigidbody",
            "root": false,
            "mass": 0,
            "ldrag": 0,
            "adrag": 0.05,
            "center": {
              "x": 0.0,
              "y": 0.0,
              "z": 0.0
            },
            "freeze": {
              "positionx": false,
              "positiony": false,
              "positionz": false,
              "rotationx": false,
              "rotationy": false,
              "rotationz": false
            },
            "gravity": false
          },
          "collision": {
            "type": "BoxCollider",
            "entity": "Cube",
            "center": {
              "x": 0.0,
              "y": 0.0,
              "z": 0.0
            },
            "trigger": false,
            "boxsize": {
              "x": 1.0,
              "y": 1.0,
              "z": 1.0
            },
            "segments": 24,
            "compound": false,
            "convexmesh": false,
            "capsulesize": {
              "x": 0.0,
              "y": 0.0,
              "z": 0.0
            },
            "sphereradius": 0.0,
            "restitution": 0.0,
            "dynamicfriction": 0.6,
            "staticfriction": 0.6,
            "wheelinformation": null
          },
          "renderer": {
            "castshadows": true,
            "receiveshadows": true,
            "usevertexcolors": false,
            "istriggervolume": false,
            "checkcollisions": true,
            "freezeworldmatrix": false,
            "setmeshpickable": true,
            "cullingstrategy": 0,
            "showboundingbox": false,
            "defaultellipsoid": {
              "x": 0.5,
              "y": 1.0,
              "z": 0.5
            },
            "ellipsoidoffset": {
              "x": 0.0,
              "y": 0.0,
              "z": 0.0
            },
            "rendergroupid": 0,
            "layermask": 1
          },
          "components": [
            {
              "alias": "script",
              "order": -1,
              "klass": "BABYLON.RigidbodyPhysics",
              "properties": {
                "mass": 0,
                "drag": 0,
                "angularDrag": 0.05,
                "useGravity": false,
                "isKinematic": true
              },
              "instance": null
            }
          ]
        }
      }
    }
  ],
  "scene": 0,
  "scenes": [
    {
      "nodes": [
        0,
        1,
        2
      ],
      "name": "SampleScene",
      "extras": {
        "metadata": {
          "gltf": true,
          "intensity": 1.0,
          "debugging": false,
          "properties": true,
          "disposeroot": false,
          "ktxtextures": false,
          "rendergroups": 4,
          "rawmaterials": [],
          "script": "testjs",
          "project": "Testjs.js",
          "filename": "SampleScene",
          "prewarmup": 1.0,
          "hideloader": true,
          "exposure": 1,
          "tonemapping": 0,
          "gammacorrection": 1,
          "trianglenormals": true,
          "deltaworldstep": true,
          "subtimestep": 0.0,
          "pointerlock": false,
          "preventdefault": false,
          "ccdpenetration": 0.0,
          "ccdenabled": true,
          "maxworldsweep": 0,
          "enableinput": true,
          "usecapture": false,
          "userinput": null,
          "showdebugcolliders": false,
          "collidervisibility": 0.5,
          "colliderrendergroup": 0,
          "collisionwireframe": true,
          "navigation": {
            "prebaked": null,
            "tilecount": 0,
            "collision": false,
            "showdebug": false,
            "debugcolor": [
              0.05,
              0.225,
              0.75,
              1.0
            ],
            "timesteps": 0.0,
            "areatable": [
              {
                "index": 0,
                "area": "Walkable",
                "cost": 1.0
              },
              {
                "index": 1,
                "area": "Not Walkable",
                "cost": 1.0
              },
              {
                "index": 2,
                "area": "Jump",
                "cost": 2.0
              }
            ],
            "bakeprops": {
              "cs": 0.3,
              "ch": 0.2,
              "walkableradius": 0,
              "walkableheight": 0,
              "walkableslopeangle": 90.0,
              "walkableclimb": 5,
              "maxedgelen": 12,
              "minregionarea": 2,
              "mergeregionarea": 20,
              "maxsimplificationerror": 1.3,
              "maxvertsperpoly": 6,
              "detailsampledist": 6.0,
              "detailsamplemaxerror": 1.0
            },
            "offmeshlinks": null
          },
          "autoclear": true,
          "clearcolor": {
            "r": 0.192156866,
            "g": 0.3019608,
            "b": 0.4745098,
            "a": 1.0
          },
          "sunposition": {
            "x": 0.0,
            "y": 50.0,
            "z": 0.0
          },
          "sunrotation": {
            "x": 0.408217877,
            "y": -0.234569684,
            "z": 0.109381631,
            "w": 0.8754261
          },
          "enablephysics": true,
          "defaultgravity": {
            "x": 0.0,
            "y": -9.81,
            "z": 0.0
          },
          "freezeactivemeshes": true,
          "imageprocessing": {
            "contrast": 1.0,
            "exposure": 1.0
          },
          "ambientlightintensity": 1.0,
          "ambientspecularcolor": {
            "r": 0.0,
            "g": 0.0,
            "b": 0.0,
            "a": 1.0
          },
          "ambientgroundcolor": {
            "r": 0.5757022,
            "g": 0.5680221,
            "b": 0.5605159,
            "a": 1.0
          },
          "ambientskycolor": {
            "r": 0.5591105,
            "g": 0.5950388,
            "b": 0.670482337,
            "a": 1.0
          },
          "ambientcoloring": {
            "r": 0.3,
            "g": 0.3,
            "b": 0.3,
            "a": 1.0
          },
          "ambientlighting": 1,
          "fogtype": "None",
          "fogmode": 0,
          "fogdensity": 0.01,
          "fogcolor": {
            "r": 0.5,
            "g": 0.5,
            "b": 0.5,
            "a": 1.0
          },
          "fogstart": 0.0,
          "fogend": 300.0,
          "skybox": {
            "skyfog": false,
            "skytags": "",
            "skysize": 2000.0,
            "skysrgb": false,
            "skyfaces": "png",
            "basename": "assets/Default-Skybox",
            "anisolevel": 2,
            "exposure": 1.3,
            "rotation": 0.0,
            "maxreflect": false,
            "hdrskybox": false,
            "rendergroup": 0,
            "extensions": [
              "_px.png",
              "_py.png",
              "_pz.png",
              "_nx.png",
              "_ny.png",
              "_nz.png"
            ],
            "polynomial": 0.01,
            "environment": null
          }
        }
      }
    }
  ]
}